<svg xmlns="http://www.w3.org/2000/svg" width="744" height="1073" viewBox="27211 4134 744 1073" fill="none">
  <g id="Pravý displej_9">
    <g clip-path="url(#clip25_0_1)">
      <rect x="27211" y="4134" width="744" height="1073" rx="20" fill="black" />
      <g id="biosignál.detekován_9">
        <path d="M27802.4 4270.95H27804.8C27805.4 4270.95 27805.9 4271 27806.3 4271.1C27806.7 4271.2 27807 4271.38 27807.2 4271.63C27807.4 4271.88 27807.5 4272.22 27807.5 4272.67C27807.5 4272.98 27807.4 4273.24 27807.3 4273.47C27807.2 4273.7 27807 4273.88 27806.9 4274.02C27806.7 4274.15 27806.5 4274.24 27806.2 4274.29C27806.2 4274.3 27806.1 4274.31 27806.1 4274.31V4274.27C27806.1 4274.27 27806.2 4274.27 27806.2 4274.28C27806.6 4274.31 27806.9 4274.39 27807.1 4274.54C27807.4 4274.69 27807.6 4274.89 27807.8 4275.16C27807.9 4275.43 27808 4275.75 27808 4276.12C27808 4276.59 27807.9 4276.97 27807.7 4277.24C27807.5 4277.51 27807.1 4277.71 27806.7 4277.83C27806.3 4277.94 27805.8 4278 27805.2 4278H27802.4V4270.95ZM27805.2 4277.24C27805.4 4277.24 27805.5 4277.24 27805.5 4277.23C27805.9 4277.22 27806.2 4277.17 27806.4 4277.1C27806.6 4277.02 27806.8 4276.89 27806.9 4276.71C27807 4276.53 27807.1 4276.28 27807.1 4275.97C27807.1 4275.68 27807 4275.45 27806.9 4275.27C27806.8 4275.09 27806.7 4274.96 27806.4 4274.87C27806.2 4274.78 27806 4274.73 27805.6 4274.71C27805.5 4274.7 27805.3 4274.69 27805.2 4274.69H27803.3V4277.24H27805.2ZM27804.8 4273.97C27805 4273.97 27805.1 4273.97 27805.2 4273.96C27805.5 4273.95 27805.8 4273.91 27806 4273.84C27806.2 4273.77 27806.3 4273.65 27806.4 4273.49C27806.5 4273.33 27806.6 4273.11 27806.6 4272.83C27806.6 4272.5 27806.5 4272.26 27806.4 4272.1C27806.3 4271.93 27806.1 4271.83 27805.9 4271.78C27805.6 4271.73 27805.3 4271.7 27805 4271.69H27804.8H27803.3V4273.97H27804.8ZM27813 4270.95V4271.73H27808.9V4270.95H27813ZM27813 4277.22V4278H27808.9V4277.22H27813ZM27811.4 4271.15V4277.8H27810.5V4271.15H27811.4ZM27813.7 4274.47C27813.7 4273.78 27813.8 4273.16 27814.1 4272.61C27814.4 4272.06 27814.8 4271.62 27815.3 4271.31C27815.8 4271 27816.4 4270.84 27817 4270.84C27817.7 4270.84 27818.3 4271 27818.8 4271.31C27819.3 4271.62 27819.7 4272.06 27820 4272.61C27820.2 4273.16 27820.4 4273.78 27820.4 4274.47C27820.4 4275.16 27820.2 4275.79 27820 4276.34C27819.7 4276.89 27819.3 4277.33 27818.8 4277.64C27818.3 4277.95 27817.7 4278.11 27817 4278.11C27816.4 4278.11 27815.8 4277.95 27815.3 4277.64C27814.8 4277.33 27814.4 4276.89 27814.1 4276.34C27813.8 4275.79 27813.7 4275.16 27813.7 4274.47ZM27814.6 4274.47C27814.6 4275.04 27814.7 4275.53 27814.9 4275.96C27815.1 4276.38 27815.3 4276.71 27815.7 4276.96C27816.1 4277.2 27816.5 4277.32 27817 4277.32C27817.6 4277.32 27818 4277.2 27818.4 4276.96C27818.7 4276.71 27819 4276.38 27819.2 4275.96C27819.4 4275.53 27819.4 4275.04 27819.4 4274.47C27819.4 4273.91 27819.4 4273.42 27819.2 4272.99C27819 4272.56 27818.7 4272.23 27818.4 4271.99C27818 4271.75 27817.6 4271.63 27817 4271.63C27816.5 4271.63 27816.1 4271.75 27815.7 4272C27815.3 4272.24 27815.1 4272.57 27814.9 4273C27814.7 4273.42 27814.6 4273.91 27814.6 4274.47ZM27827.3 4276.13C27827.3 4276.76 27827.1 4277.25 27826.7 4277.6C27826.2 4277.94 27825.6 4278.11 27824.6 4278.11C27823.6 4278.11 27822.8 4277.87 27822.2 4277.4C27821.6 4276.93 27821.4 4276.24 27821.4 4275.35H27822.3C27822.3 4275.8 27822.4 4276.17 27822.6 4276.47C27822.7 4276.76 27823 4276.98 27823.3 4277.13C27823.7 4277.27 27824.1 4277.34 27824.7 4277.34C27825.3 4277.34 27825.7 4277.24 27826 4277.05C27826.3 4276.86 27826.4 4276.56 27826.4 4276.17C27826.4 4275.89 27826.3 4275.65 27826.1 4275.45C27825.9 4275.25 27825.6 4275.1 27825.2 4274.99L27823.3 4274.48C27822.7 4274.33 27822.3 4274.11 27822.1 4273.81C27821.8 4273.51 27821.7 4273.14 27821.7 4272.7C27821.7 4272.1 27821.9 4271.64 27822.3 4271.32C27822.8 4271 27823.4 4270.84 27824.2 4270.84C27824.8 4270.84 27825.4 4270.94 27825.8 4271.13C27826.2 4271.32 27826.6 4271.6 27826.8 4271.97C27827 4272.33 27827.1 4272.77 27827.1 4273.28H27826.2C27826.2 4272.72 27826 4272.3 27825.7 4272.02C27825.4 4271.74 27824.9 4271.6 27824.2 4271.6C27823.7 4271.6 27823.3 4271.69 27823 4271.87C27822.8 4272.05 27822.6 4272.32 27822.6 4272.68C27822.6 4272.93 27822.7 4273.15 27822.9 4273.33C27823 4273.51 27823.3 4273.65 27823.7 4273.75L27825.6 4274.24C27826.2 4274.39 27826.6 4274.62 27826.9 4274.94C27827.2 4275.26 27827.3 4275.66 27827.3 4276.13ZM27832.2 4270.95V4271.73H27828.2V4270.95H27832.2ZM27832.2 4277.22V4278H27828.2V4277.22H27832.2ZM27830.7 4271.15V4277.8H27829.8V4271.15H27830.7ZM27836.1 4278.11C27835.4 4278.11 27834.9 4277.96 27834.4 4277.65C27833.9 4277.34 27833.6 4276.92 27833.3 4276.39C27833.1 4275.85 27833 4275.23 27833 4274.54C27833 4273.8 27833.1 4273.15 27833.4 4272.6C27833.6 4272.04 27834 4271.61 27834.5 4271.3C27835 4270.99 27835.6 4270.84 27836.3 4270.84C27836.9 4270.84 27837.4 4270.95 27837.8 4271.16C27838.3 4271.37 27838.6 4271.67 27838.9 4272.07C27839.2 4272.46 27839.3 4272.93 27839.4 4273.47H27838.5C27838.4 4272.88 27838.2 4272.43 27837.8 4272.11C27837.4 4271.78 27837 4271.62 27836.4 4271.62C27835.8 4271.62 27835.4 4271.74 27835 4271.99C27834.6 4272.23 27834.4 4272.57 27834.2 4273.01C27834 4273.45 27833.9 4273.97 27833.9 4274.56C27833.9 4275.38 27834.1 4276.05 27834.5 4276.56C27834.9 4277.07 27835.5 4277.33 27836.3 4277.33C27836.9 4277.33 27837.3 4277.23 27837.7 4277.03C27838 4276.82 27838.3 4276.52 27838.5 4276.12C27838.6 4275.71 27838.7 4275.22 27838.6 4274.65L27839.1 4274.91H27835.9V4274.21H27838.9C27839.1 4274.21 27839.3 4274.26 27839.4 4274.36C27839.5 4274.46 27839.6 4274.61 27839.6 4274.8V4278H27838.7V4277.2V4276.25H27838.7C27838.7 4276.47 27838.6 4276.72 27838.5 4277.01C27838.3 4277.3 27838 4277.55 27837.6 4277.78C27837.2 4278 27836.7 4278.11 27836.1 4278.11ZM27841 4270.95H27842.7L27846.3 4277.75H27846.3V4277.12V4270.95H27847.2V4278H27845.5L27841.9 4271.2H27841.9V4271.83V4278H27841V4270.95ZM27850.6 4270.95H27852.2L27854.6 4278H27853.7L27851.4 4271.2H27851.5L27849.1 4278H27848.2L27850.6 4270.95ZM27849.6 4274.52H27853.3V4275.3H27849.6V4274.52ZM27849.7 4269.48L27852.9 4268.68L27853.1 4269.36L27849.9 4270.16L27849.7 4269.48ZM27856.2 4278C27856 4278 27855.8 4277.95 27855.7 4277.84C27855.6 4277.73 27855.6 4277.57 27855.6 4277.37V4270.95H27856.5V4277.22H27860V4278H27856.2ZM27861.8 4278.1C27861.5 4278.1 27861.3 4278.02 27861.2 4277.86C27861 4277.69 27860.9 4277.49 27860.9 4277.25C27860.9 4277.02 27861 4276.82 27861.2 4276.66C27861.3 4276.49 27861.5 4276.41 27861.8 4276.41C27862 4276.41 27862.2 4276.49 27862.4 4276.66C27862.5 4276.82 27862.6 4277.02 27862.6 4277.25C27862.6 4277.48 27862.5 4277.68 27862.4 4277.85C27862.2 4278.02 27862 4278.1 27861.8 4278.1Z" fill="#BFBAB2" />
        <path d="M27864 4270.95H27865.8V4278H27864V4270.95ZM27866.7 4276.4C27867.2 4276.4 27867.6 4276.37 27867.9 4276.3C27868.2 4276.23 27868.4 4276.06 27868.6 4275.79C27868.7 4275.51 27868.8 4275.07 27868.8 4274.47C27868.8 4273.87 27868.7 4273.43 27868.6 4273.16C27868.4 4272.88 27868.2 4272.71 27867.9 4272.64C27867.6 4272.57 27867.2 4272.54 27866.7 4272.54H27865.8V4270.95H27866.7C27867.5 4270.95 27868.1 4271.04 27868.7 4271.22C27869.3 4271.4 27869.7 4271.75 27870.1 4272.27C27870.5 4272.79 27870.6 4273.52 27870.6 4274.47C27870.6 4275.42 27870.5 4276.16 27870.1 4276.68C27869.7 4277.2 27869.3 4277.55 27868.7 4277.73C27868.1 4277.91 27867.5 4278 27866.7 4278H27865.8V4276.4H27866.7ZM27871.5 4270.95H27877.1V4272.54H27873.3V4273.72H27876.6V4275.22H27873.3V4276.41H27877.1V4278H27871.5V4270.95ZM27884.1 4270.95V4272.54H27877.8V4270.95H27884.1ZM27881.9 4271.15V4278H27880.1V4271.15H27881.9ZM27885 4270.95H27890.6V4272.54H27886.8V4273.72H27890.1V4275.22H27886.8V4276.41H27890.6V4278H27885V4270.95ZM27891.6 4270.95H27893.4V4273.75H27893.4L27896.1 4270.95H27898.3L27894.5 4274.91L27894.4 4273.64L27898.4 4278H27896.1L27893.4 4274.97H27893.4V4278H27891.6V4270.95ZM27898 4274.47C27898 4273.78 27898.1 4273.15 27898.4 4272.6C27898.7 4272.04 27899.1 4271.6 27899.7 4271.29C27900.3 4270.97 27900.9 4270.81 27901.7 4270.81C27902.4 4270.81 27903.1 4270.97 27903.6 4271.29C27904.2 4271.6 27904.6 4272.04 27904.9 4272.6C27905.2 4273.15 27905.4 4273.78 27905.4 4274.47C27905.4 4275.17 27905.2 4275.8 27904.9 4276.36C27904.6 4276.91 27904.2 4277.35 27903.6 4277.67C27903.1 4277.98 27902.4 4278.14 27901.7 4278.14C27900.9 4278.14 27900.3 4277.98 27899.7 4277.67C27899.1 4277.35 27898.7 4276.91 27898.4 4276.36C27898.1 4275.8 27898 4275.17 27898 4274.47ZM27899.8 4274.47C27899.8 4274.9 27899.9 4275.27 27900 4275.57C27900.2 4275.87 27900.4 4276.1 27900.7 4276.26C27900.9 4276.41 27901.3 4276.49 27901.7 4276.49C27902.1 4276.49 27902.4 4276.41 27902.7 4276.26C27903 4276.1 27903.2 4275.87 27903.3 4275.57C27903.4 4275.27 27903.5 4274.9 27903.5 4274.47C27903.5 4274.04 27903.4 4273.67 27903.3 4273.38C27903.1 4273.08 27902.9 4272.85 27902.7 4272.7C27902.4 4272.54 27902.1 4272.46 27901.7 4272.46C27901.3 4272.46 27900.9 4272.54 27900.7 4272.7C27900.4 4272.85 27900.2 4273.08 27900 4273.38C27899.9 4273.68 27899.8 4274.04 27899.8 4274.47ZM27905 4270.95H27907L27909 4277.55H27908.9L27911 4270.95H27912.9L27910.6 4278H27907.3L27905 4270.95ZM27914.2 4270.95H27917.5L27919.7 4278H27917.8L27915.8 4271.4H27915.9L27913.8 4278H27911.9L27914.2 4270.95ZM27913.5 4274.28H27918.3V4275.87H27913.5V4274.28ZM27913.6 4269.28L27917.6 4268.41L27917.9 4269.62L27913.8 4270.49L27913.6 4269.28ZM27920.2 4270.95H27923.6L27925.7 4277.55H27925.6V4276.44V4270.95H27927.4V4278H27924L27922 4271.4H27922V4272.51V4278H27920.2V4270.95Z" fill="#7DDE07" />
      </g>
      <g id="Frame 2147207727_9">
        <path id="Gyroskop_9" d="M27600.6 4949.17C27599.7 4949.17 27599 4948.88 27598.5 4948.29C27598 4947.7 27597.7 4946.85 27597.7 4945.74V4943.86C27597.7 4942.78 27598 4941.94 27598.5 4941.34C27599 4940.74 27599.7 4940.43 27600.7 4940.43C27601.3 4940.43 27601.8 4940.57 27602.3 4940.84C27602.7 4941.11 27603.1 4941.48 27603.3 4941.94C27603.5 4942.4 27603.6 4942.91 27603.6 4943.48V4943.62H27602.6V4943.48C27602.6 4943.11 27602.5 4942.77 27602.4 4942.45C27602.3 4942.13 27602.1 4941.87 27601.8 4941.67C27601.5 4941.47 27601.1 4941.37 27600.7 4941.37C27600 4941.37 27599.5 4941.6 27599.2 4942.08C27598.9 4942.55 27598.7 4943.17 27598.7 4943.94V4945.66C27598.7 4946.48 27598.9 4947.11 27599.2 4947.56C27599.5 4948.01 27600 4948.23 27600.7 4948.23C27601.3 4948.23 27601.7 4948.04 27602.1 4947.66C27602.4 4947.26 27602.6 4946.73 27602.6 4946.05V4945.9H27599.9V4944.97H27603.6V4949H27602.7V4947.99H27602.5C27602.4 4948.34 27602.2 4948.62 27601.8 4948.84C27601.5 4949.06 27601.1 4949.17 27600.6 4949.17ZM27608.5 4949V4946.05H27608.3L27605.6 4940.6H27606.8L27608.9 4945.18H27609.1L27611.2 4940.6H27612.3L27609.7 4946.05H27609.5V4949H27608.5ZM27614.6 4949V4940.6H27617.6C27618.2 4940.6 27618.7 4940.71 27619.1 4940.92C27619.4 4941.13 27619.7 4941.41 27619.9 4941.75C27620.1 4942.1 27620.2 4942.47 27620.2 4942.88V4943.24C27620.2 4943.55 27620.1 4943.86 27619.9 4944.18C27619.8 4944.49 27619.5 4944.73 27619.1 4944.9V4945.04C27619.4 4945.07 27619.6 4945.17 27619.7 4945.33C27619.8 4945.48 27619.9 4945.7 27619.9 4945.98V4949H27618.9V4946.19C27618.9 4945.98 27618.9 4945.82 27618.8 4945.71C27618.7 4945.6 27618.5 4945.54 27618.3 4945.54H27615.6V4949H27614.6ZM27615.6 4944.61H27617.5C27618.6 4944.61 27619.2 4944.13 27619.2 4943.17V4942.95C27619.2 4942.53 27619.1 4942.19 27618.8 4941.93C27618.5 4941.67 27618.1 4941.54 27617.5 4941.54H27615.6V4944.61ZM27625.6 4949.17C27624.7 4949.17 27624 4948.88 27623.4 4948.29C27622.9 4947.7 27622.6 4946.85 27622.6 4945.74V4943.86C27622.6 4942.78 27622.9 4941.94 27623.4 4941.34C27624 4940.74 27624.7 4940.43 27625.6 4940.43C27626.5 4940.43 27627.2 4940.74 27627.8 4941.34C27628.3 4941.94 27628.5 4942.78 27628.5 4943.86V4945.74C27628.5 4946.85 27628.3 4947.7 27627.8 4948.29C27627.2 4948.88 27626.5 4949.17 27625.6 4949.17ZM27625.6 4948.23C27626.2 4948.23 27626.7 4948.01 27627 4947.56C27627.4 4947.11 27627.5 4946.48 27627.5 4945.66V4943.94C27627.5 4943.17 27627.4 4942.55 27627 4942.08C27626.7 4941.6 27626.2 4941.37 27625.6 4941.37C27624.9 4941.37 27624.5 4941.6 27624.1 4942.08C27623.8 4942.55 27623.7 4943.17 27623.7 4943.94V4945.66C27623.7 4946.48 27623.8 4947.11 27624.1 4947.56C27624.5 4948.01 27624.9 4948.23 27625.6 4948.23ZM27634.1 4949.17C27633.4 4949.17 27632.7 4949.04 27632.3 4948.77C27631.8 4948.5 27631.4 4948.13 27631.1 4947.67C27630.9 4947.2 27630.8 4946.68 27630.8 4946.1V4945.74H27631.8V4946.02C27631.8 4946.75 27632 4947.3 27632.4 4947.68C27632.8 4948.05 27633.4 4948.23 27634.1 4948.23C27634.7 4948.23 27635.2 4948.09 27635.5 4947.81C27635.8 4947.53 27636 4947.17 27636 4946.72V4946.65C27636 4946.21 27635.8 4945.87 27635.5 4945.64C27635.1 4945.41 27634.6 4945.24 27633.9 4945.14C27633.1 4945.02 27632.4 4944.78 27631.9 4944.43C27631.4 4944.07 27631.1 4943.53 27631.1 4942.81V4942.66C27631.1 4942.22 27631.2 4941.84 27631.5 4941.51C27631.7 4941.18 27632 4940.91 27632.5 4940.72C27632.9 4940.53 27633.4 4940.43 27633.9 4940.43C27634.5 4940.43 27635.1 4940.55 27635.5 4940.78C27636 4941.01 27636.3 4941.32 27636.5 4941.7C27636.8 4942.08 27636.9 4942.5 27636.9 4942.95V4943.46H27635.9V4943.02C27635.9 4942.66 27635.8 4942.35 27635.6 4942.11C27635.4 4941.86 27635.2 4941.68 27634.9 4941.56C27634.6 4941.43 27634.2 4941.37 27633.9 4941.37C27633.6 4941.37 27633.3 4941.42 27633 4941.52C27632.8 4941.63 27632.5 4941.78 27632.4 4941.98C27632.2 4942.17 27632.1 4942.41 27632.1 4942.7V4942.77C27632.1 4943.24 27632.3 4943.58 27632.7 4943.79C27633.1 4944 27633.6 4944.16 27634.4 4944.27C27635.3 4944.4 27635.9 4944.66 27636.3 4945.04C27636.8 4945.42 27637 4945.94 27637 4946.58V4946.72C27637 4947.45 27636.7 4948.04 27636.2 4948.5C27635.7 4948.94 27635 4949.17 27634.1 4949.17ZM27639.6 4949V4940.6H27640.6V4944.32H27640.9L27644.1 4940.6H27645.4V4940.67L27641.9 4944.73V4944.87L27645.5 4948.93V4949H27644.2L27640.9 4945.26H27640.6V4949H27639.6ZM27650.5 4949.17C27649.6 4949.17 27648.9 4948.88 27648.3 4948.29C27647.8 4947.7 27647.6 4946.85 27647.6 4945.74V4943.86C27647.6 4942.78 27647.8 4941.94 27648.3 4941.34C27648.9 4940.74 27649.6 4940.43 27650.5 4940.43C27651.4 4940.43 27652.2 4940.74 27652.7 4941.34C27653.2 4941.94 27653.5 4942.78 27653.5 4943.86V4945.74C27653.5 4946.85 27653.2 4947.7 27652.7 4948.29C27652.2 4948.88 27651.4 4949.17 27650.5 4949.17ZM27650.5 4948.23C27651.2 4948.23 27651.6 4948.01 27652 4947.56C27652.3 4947.11 27652.5 4946.48 27652.5 4945.66V4943.94C27652.5 4943.17 27652.3 4942.55 27652 4942.08C27651.6 4941.6 27651.2 4941.37 27650.5 4941.37C27649.9 4941.37 27649.4 4941.6 27649.1 4942.08C27648.7 4942.55 27648.6 4943.17 27648.6 4943.94V4945.66C27648.6 4946.48 27648.7 4947.11 27649.1 4947.56C27649.4 4948.01 27649.9 4948.23 27650.5 4948.23ZM27656.2 4949V4940.6H27659.2C27659.7 4940.6 27660.2 4940.71 27660.6 4940.92C27661 4941.13 27661.3 4941.41 27661.5 4941.75C27661.6 4942.1 27661.7 4942.47 27661.7 4942.88V4943.24C27661.7 4943.65 27661.6 4944.03 27661.5 4944.38C27661.3 4944.73 27661 4945.02 27660.6 4945.23C27660.2 4945.44 27659.7 4945.54 27659.2 4945.54H27657.2V4949H27656.2ZM27657.2 4944.61H27659.1C27660.2 4944.61 27660.7 4944.13 27660.7 4943.17V4942.95C27660.7 4942.53 27660.6 4942.19 27660.3 4941.93C27660 4941.67 27659.6 4941.54 27659.1 4941.54H27657.2V4944.61Z" fill="#BFBAB2" fill-opacity="0.48" />
        <g id="Frame 2147207726_9">
          <path id="Vector 71_9" d="M27601.1 4961H27924.1C27926.3 4961 27928.1 4962.79 27928.1 4965L27928 5121C27928 5123.21 27926.2 5125 27924 5125L27654.2 5125C27652.6 5125 27651.1 5124 27650.5 5122.47L27597.3 4987.89C27597.1 4987.41 27597 4986.91 27597 4986.4L27597.1 4964.98C27597.1 4962.78 27598.9 4961 27601.1 4961Z" stroke="white" stroke-opacity="0.12" />
        </g>
      </g>
      <g id="Frame 2147207707_9">
        <path id="Manuál_9" d="M27597.6 4394V4384.9H27599.7L27600.9 4393.53H27601.1L27602.3 4384.9H27604.4V4394H27603.3V4385.37H27603.2L27602 4394H27600L27598.8 4385.37H27598.6V4394H27597.6ZM27606.2 4394L27609 4384.9H27611L27613.8 4394H27612.6L27611.9 4391.74H27608L27607.4 4394H27606.2ZM27608.3 4390.72H27611.6L27610.1 4385.37H27609.9L27608.3 4390.72ZM27615.9 4394V4384.9H27618.1L27620.8 4393.53H27620.9V4384.9H27622V4394H27619.8L27617.2 4385.37H27617V4394H27615.9ZM27628 4394.18C27627 4394.18 27626.3 4393.9 27625.7 4393.35C27625.1 4392.79 27624.9 4391.98 27624.9 4390.93V4384.9H27625.9V4390.93C27625.9 4391.66 27626.1 4392.21 27626.5 4392.6C27626.8 4392.98 27627.3 4393.17 27628 4393.17C27628.6 4393.17 27629.1 4392.98 27629.5 4392.6C27629.8 4392.21 27630 4391.66 27630 4390.93V4384.9H27631.1V4390.93C27631.1 4391.98 27630.8 4392.79 27630.3 4393.35C27629.7 4393.9 27628.9 4394.18 27628 4394.18ZM27633.2 4394L27636 4384.9H27638L27640.8 4394H27639.6L27638.9 4391.74H27635L27634.4 4394H27633.2ZM27635.3 4390.72H27638.6L27637.1 4385.37H27636.9L27635.3 4390.72ZM27636.6 4383.94L27637.5 4382.4H27638.6L27637.5 4383.94H27636.6ZM27643.1 4394V4384.9H27644.2V4392.99H27649V4394H27643.1Z" fill="#BFBAB2" fill-opacity="0.48" />
        <g id="Frame 2147207678_17">
          <rect x="27597" y="4405" width="331" height="120" rx="4" stroke="white" stroke-opacity="0.12" />
          <g id="Frame 2147207677_9">
            <path id="jde ti to dobře!!" d="M27623.7 4458H27614.3V4455.04H27622.9C27626.7 4455.04 27627.9 4452.64 27627.9 4448.61V4434.17H27618.1V4431.21H27628.7C27630.6 4431.21 27631.3 4431.86 27631.3 4433.68V4449.56C27631.3 4455.04 27628.7 4458 27623.7 4458ZM27636.9 4458V4431.21H27645.5C27652.1 4431.21 27659.1 4433.07 27659.1 4444.59C27659.1 4456.14 27652.1 4458 27645.5 4458H27636.9ZM27640.3 4455.04H27645.5C27650.3 4455.04 27655.6 4454.28 27655.6 4444.59C27655.6 4434.93 27650.2 4434.17 27645.5 4434.17H27640.3V4455.04ZM27664 4458V4431.21H27682.6V4434.17H27667.5V4443.14H27680.7V4446.03H27667.5V4455.04H27682.6V4458H27664ZM27698.6 4431.21H27720.5V4434.17H27711.3V4458H27707.9V4434.17H27698.6V4431.21ZM27724.5 4431.21H27739.9V4434.17H27733.9V4455.04H27739.9V4458H27724.5V4455.04H27730.5V4434.17H27724.5V4431.21ZM27756.2 4431.21H27778.1V4434.17H27768.9V4458H27765.5V4434.17H27756.2V4431.21ZM27780 4444.59C27780 4436.76 27784.7 4430.79 27792.6 4430.79C27800.6 4430.79 27805.2 4436.76 27805.2 4444.59C27805.2 4452.45 27800.6 4458.42 27792.6 4458.42C27784.7 4458.42 27780 4452.45 27780 4444.59ZM27783.5 4444.59C27783.5 4450.89 27786.5 4455.42 27792.6 4455.42C27798.8 4455.42 27801.8 4450.89 27801.8 4444.59C27801.8 4438.32 27798.8 4433.79 27792.6 4433.79C27786.5 4433.79 27783.5 4438.32 27783.5 4444.59ZM27615.7 4497V4470.21H27624.4C27631 4470.21 27637.9 4472.07 27637.9 4483.59C27637.9 4495.14 27631 4497 27624.4 4497H27615.7ZM27619.2 4494.04H27624.4C27629.1 4494.04 27634.5 4493.28 27634.5 4483.59C27634.5 4473.93 27629.1 4473.17 27624.4 4473.17H27619.2V4494.04ZM27642.6 4483.59C27642.6 4475.76 27647.3 4469.79 27655.3 4469.79C27663.2 4469.79 27667.9 4475.76 27667.9 4483.59C27667.9 4491.45 27663.2 4497.42 27655.3 4497.42C27647.3 4497.42 27642.6 4491.45 27642.6 4483.59ZM27646.1 4483.59C27646.1 4489.89 27649.1 4494.42 27655.3 4494.42C27661.4 4494.42 27664.4 4489.89 27664.4 4483.59C27664.4 4477.32 27661.4 4472.79 27655.3 4472.79C27649.1 4472.79 27646.1 4477.32 27646.1 4483.59ZM27672.8 4497V4470.21H27681.9C27688.5 4470.21 27692.3 4471.5 27692.3 4476.75C27692.3 4480.32 27690 4482.37 27687.5 4482.86C27691.5 4483.28 27694.2 4485.56 27694.2 4489.86C27694.2 4495.33 27690.1 4497 27683.5 4497H27672.8ZM27676.3 4494.11H27683.6C27688.1 4494.11 27690.8 4493.43 27690.8 4489.29C27690.8 4485.41 27688 4484.42 27683.6 4484.42H27676.3V4494.11ZM27676.3 4481.69H27682C27686.2 4481.69 27688.8 4481.12 27688.8 4477.35C27688.8 4473.29 27686.3 4473.02 27682 4473.02H27676.3V4481.69ZM27698.9 4497V4470.21H27708.9C27715.1 4470.21 27719.3 4471.62 27719.3 4477.54C27719.3 4481.57 27717.5 4483.59 27714.6 4484.31H27716.6C27718.7 4484.31 27719.3 4485.56 27719.3 4487.12V4497H27715.9V4486.4H27702.4V4497H27698.9ZM27702.1 4462.72L27704 4460.86L27708.4 4464.43L27712.8 4460.86L27714.7 4462.72L27708.4 4467.78L27702.1 4462.72ZM27702.4 4483.43H27708.9C27713.2 4483.43 27715.9 4482.94 27715.9 4478.3C27715.9 4473.55 27713.2 4473.17 27708.9 4473.17H27702.4V4483.43ZM27724.7 4497V4470.21H27743.3V4473.17H27728.1V4482.14H27741.4V4485.03H27728.1V4494.04H27743.3V4497H27724.7ZM27750.3 4497.38C27748.4 4497.38 27747 4495.94 27747 4494.15C27747 4492.36 27748.4 4490.96 27750.3 4490.96C27752.1 4490.96 27753.5 4492.36 27753.5 4494.15C27753.5 4495.94 27752.1 4497.38 27750.3 4497.38ZM27748.6 4470.21H27752L27751.6 4487.65H27749.1L27748.6 4470.21ZM27760.5 4497.38C27758.6 4497.38 27757.2 4495.94 27757.2 4494.15C27757.2 4492.36 27758.6 4490.96 27760.5 4490.96C27762.3 4490.96 27763.7 4492.36 27763.7 4494.15C27763.7 4495.94 27762.3 4497.38 27760.5 4497.38ZM27758.8 4470.21H27762.2L27761.8 4487.65H27759.3L27758.8 4470.21Z" fill="#BFBAB2" />
          </g>
        </g>
      </g>
      <g id="Frame 2147207728_17">
        <path id="Míchání_9" d="M27597.6 4563V4553.9H27599.7L27600.9 4562.53H27601.1L27602.3 4553.9H27604.4V4563H27603.3V4554.37H27603.2L27602 4563H27600L27598.8 4554.37H27598.6V4563H27597.6ZM27607.1 4563V4561.99H27609.4V4554.91H27607.1V4553.9H27612.9V4554.91H27610.5V4561.99H27612.9V4563H27607.1ZM27609.6 4552.94L27610.5 4551.4H27611.7L27610.6 4552.94H27609.6ZM27619 4563.18C27618 4563.18 27617.2 4562.87 27616.7 4562.23C27616.1 4561.59 27615.8 4560.67 27615.8 4559.46V4557.44C27615.8 4556.27 27616.1 4555.36 27616.7 4554.71C27617.2 4554.05 27618 4553.72 27619 4553.72C27619.7 4553.72 27620.3 4553.87 27620.8 4554.16C27621.3 4554.45 27621.6 4554.85 27621.9 4555.36C27622.1 4555.85 27622.2 4556.4 27622.2 4557.02V4557.18H27621.1V4557.02C27621.1 4556.62 27621 4556.25 27620.9 4555.9C27620.8 4555.56 27620.5 4555.27 27620.2 4555.06C27619.9 4554.84 27619.5 4554.73 27619 4554.73C27618.3 4554.73 27617.8 4554.99 27617.4 4555.5C27617.1 4556.01 27616.9 4556.68 27616.9 4557.51V4559.39C27616.9 4560.27 27617.1 4560.95 27617.4 4561.44C27617.8 4561.93 27618.3 4562.17 27619 4562.17C27619.5 4562.17 27619.9 4562.06 27620.2 4561.84C27620.6 4561.63 27620.8 4561.34 27620.9 4561C27621.1 4560.65 27621.1 4560.28 27621.1 4559.88V4559.72H27622.2V4559.88C27622.2 4560.5 27622.1 4561.05 27621.9 4561.56C27621.6 4562.05 27621.3 4562.45 27620.8 4562.74C27620.3 4563.03 27619.7 4563.18 27619 4563.18ZM27624.9 4563V4553.9H27626V4557.93H27629.9V4553.9H27631V4563H27629.9V4558.94H27626V4563H27624.9ZM27633.2 4563L27636 4553.9H27638L27640.8 4563H27639.6L27638.9 4560.74H27635L27634.4 4563H27633.2ZM27635.3 4559.72H27638.6L27637.1 4554.37H27636.9L27635.3 4559.72ZM27636.6 4552.94L27637.5 4551.4H27638.6L27637.5 4552.94H27636.6ZM27642.9 4563V4553.9H27645.1L27647.8 4562.53H27647.9V4553.9H27649V4563H27646.8L27644.2 4554.37H27644V4563H27642.9ZM27652.1 4563V4561.99H27654.4V4554.91H27652.1V4553.9H27657.9V4554.91H27655.5V4561.99H27657.9V4563H27652.1ZM27654.6 4552.94L27655.5 4551.4H27656.7L27655.6 4552.94H27654.6Z" fill="#BFBAB2" fill-opacity="0.48" />
        <g id="Frame 2147207678_18">
          <rect x="27597" y="4574" width="331" height="166" rx="4" stroke="white" stroke-opacity="0.12" />
          <g id="Frame 2147207728_18">
            <g id="Frame 2147207730_9">
              <rect x="27613" y="4682" width="299" height="40" rx="2" fill="#041D3D" />
            </g>
          </g>
        </g>
      </g>
    </g>
  </g>
  <defs>
    <clipPath id="clip25_0_1">
      <rect x="27211" y="4134" width="744" height="1073" rx="20" fill="white" />
    </clipPath>
  </defs>
</svg>