<svg xmlns="http://www.w3.org/2000/svg" width="744" height="1073" viewBox="30708 5994 744 1073" fill="none">
  <g id="Pravý displej_8">
    <g clip-path="url(#clip21_0_1)">
      <rect x="30708" y="5994" width="744" height="1073" rx="20" fill="black" />
      <g id="biosignál.detekován_8">
        <path d="M31299.4 6130.95H31301.8C31302.4 6130.95 31302.9 6131 31303.3 6131.1C31303.7 6131.2 31304 6131.38 31304.2 6131.63C31304.4 6131.88 31304.5 6132.22 31304.5 6132.67C31304.5 6132.98 31304.4 6133.24 31304.3 6133.47C31304.2 6133.7 31304 6133.88 31303.9 6134.02C31303.7 6134.15 31303.5 6134.24 31303.2 6134.29C31303.2 6134.3 31303.1 6134.31 31303.1 6134.31V6134.27C31303.1 6134.27 31303.2 6134.27 31303.2 6134.28C31303.6 6134.31 31303.9 6134.39 31304.1 6134.54C31304.4 6134.69 31304.6 6134.89 31304.8 6135.16C31304.9 6135.43 31305 6135.75 31305 6136.12C31305 6136.59 31304.9 6136.97 31304.7 6137.24C31304.5 6137.51 31304.1 6137.71 31303.7 6137.83C31303.3 6137.94 31302.8 6138 31302.2 6138H31299.4V6130.95ZM31302.2 6137.24C31302.4 6137.24 31302.5 6137.24 31302.5 6137.23C31302.9 6137.22 31303.2 6137.17 31303.4 6137.1C31303.6 6137.02 31303.8 6136.89 31303.9 6136.71C31304 6136.53 31304.1 6136.28 31304.1 6135.97C31304.1 6135.68 31304 6135.45 31303.9 6135.27C31303.8 6135.09 31303.7 6134.96 31303.4 6134.87C31303.2 6134.78 31303 6134.73 31302.6 6134.71C31302.5 6134.7 31302.3 6134.69 31302.2 6134.69H31300.3V6137.24H31302.2ZM31301.8 6133.97C31302 6133.97 31302.1 6133.97 31302.2 6133.96C31302.5 6133.95 31302.8 6133.91 31303 6133.84C31303.2 6133.77 31303.3 6133.65 31303.4 6133.49C31303.5 6133.33 31303.6 6133.11 31303.6 6132.83C31303.6 6132.5 31303.5 6132.26 31303.4 6132.1C31303.3 6131.93 31303.1 6131.83 31302.9 6131.78C31302.6 6131.73 31302.3 6131.7 31302 6131.69H31301.8H31300.3V6133.97H31301.8ZM31310 6130.95V6131.73H31305.9V6130.95H31310ZM31310 6137.22V6138H31305.9V6137.22H31310ZM31308.4 6131.15V6137.8H31307.5V6131.15H31308.4ZM31310.7 6134.47C31310.7 6133.78 31310.8 6133.16 31311.1 6132.61C31311.4 6132.06 31311.8 6131.62 31312.3 6131.31C31312.8 6131 31313.4 6130.84 31314 6130.84C31314.7 6130.84 31315.3 6131 31315.8 6131.31C31316.3 6131.62 31316.7 6132.06 31317 6132.61C31317.2 6133.16 31317.4 6133.78 31317.4 6134.47C31317.4 6135.16 31317.2 6135.79 31317 6136.34C31316.7 6136.89 31316.3 6137.33 31315.8 6137.64C31315.3 6137.95 31314.7 6138.11 31314 6138.11C31313.4 6138.11 31312.8 6137.95 31312.3 6137.64C31311.8 6137.33 31311.4 6136.89 31311.1 6136.34C31310.8 6135.79 31310.7 6135.16 31310.7 6134.47ZM31311.6 6134.47C31311.6 6135.04 31311.7 6135.53 31311.9 6135.96C31312.1 6136.38 31312.3 6136.71 31312.7 6136.96C31313.1 6137.2 31313.5 6137.32 31314 6137.32C31314.6 6137.32 31315 6137.2 31315.4 6136.96C31315.7 6136.71 31316 6136.38 31316.2 6135.96C31316.4 6135.53 31316.4 6135.04 31316.4 6134.47C31316.4 6133.91 31316.4 6133.42 31316.2 6132.99C31316 6132.56 31315.7 6132.23 31315.4 6131.99C31315 6131.75 31314.6 6131.63 31314 6131.63C31313.5 6131.63 31313.1 6131.75 31312.7 6132C31312.3 6132.24 31312.1 6132.57 31311.9 6133C31311.7 6133.42 31311.6 6133.91 31311.6 6134.47ZM31324.3 6136.13C31324.3 6136.76 31324.1 6137.25 31323.7 6137.6C31323.2 6137.94 31322.6 6138.11 31321.6 6138.11C31320.6 6138.11 31319.8 6137.87 31319.2 6137.4C31318.6 6136.93 31318.4 6136.24 31318.4 6135.35H31319.3C31319.3 6135.8 31319.4 6136.17 31319.6 6136.47C31319.7 6136.76 31320 6136.98 31320.3 6137.13C31320.7 6137.27 31321.1 6137.34 31321.7 6137.34C31322.3 6137.34 31322.7 6137.24 31323 6137.05C31323.3 6136.86 31323.4 6136.56 31323.4 6136.17C31323.4 6135.89 31323.3 6135.65 31323.1 6135.45C31322.9 6135.25 31322.6 6135.1 31322.2 6134.99L31320.3 6134.48C31319.7 6134.33 31319.3 6134.11 31319.1 6133.81C31318.8 6133.51 31318.7 6133.14 31318.7 6132.7C31318.7 6132.1 31318.9 6131.64 31319.3 6131.32C31319.8 6131 31320.4 6130.84 31321.2 6130.84C31321.8 6130.84 31322.4 6130.94 31322.8 6131.13C31323.2 6131.32 31323.6 6131.6 31323.8 6131.97C31324 6132.33 31324.1 6132.77 31324.1 6133.28H31323.2C31323.2 6132.72 31323 6132.3 31322.7 6132.02C31322.4 6131.74 31321.9 6131.6 31321.2 6131.6C31320.7 6131.6 31320.3 6131.69 31320 6131.87C31319.8 6132.05 31319.6 6132.32 31319.6 6132.68C31319.6 6132.93 31319.7 6133.15 31319.9 6133.33C31320 6133.51 31320.3 6133.65 31320.7 6133.75L31322.6 6134.24C31323.2 6134.39 31323.6 6134.62 31323.9 6134.94C31324.2 6135.26 31324.3 6135.66 31324.3 6136.13ZM31329.2 6130.95V6131.73H31325.2V6130.95H31329.2ZM31329.2 6137.22V6138H31325.2V6137.22H31329.2ZM31327.7 6131.15V6137.8H31326.8V6131.15H31327.7ZM31333.1 6138.11C31332.4 6138.11 31331.9 6137.96 31331.4 6137.65C31330.9 6137.34 31330.6 6136.92 31330.3 6136.39C31330.1 6135.85 31330 6135.23 31330 6134.54C31330 6133.8 31330.1 6133.15 31330.4 6132.6C31330.6 6132.04 31331 6131.61 31331.5 6131.3C31332 6130.99 31332.6 6130.84 31333.3 6130.84C31333.9 6130.84 31334.4 6130.95 31334.8 6131.16C31335.3 6131.37 31335.6 6131.67 31335.9 6132.07C31336.2 6132.46 31336.3 6132.93 31336.4 6133.47H31335.5C31335.4 6132.88 31335.2 6132.43 31334.8 6132.11C31334.4 6131.78 31334 6131.62 31333.4 6131.62C31332.8 6131.62 31332.4 6131.74 31332 6131.99C31331.6 6132.23 31331.4 6132.57 31331.2 6133.01C31331 6133.45 31330.9 6133.97 31330.9 6134.56C31330.9 6135.38 31331.1 6136.05 31331.5 6136.56C31331.9 6137.07 31332.5 6137.33 31333.3 6137.33C31333.9 6137.33 31334.3 6137.23 31334.7 6137.03C31335 6136.82 31335.3 6136.52 31335.5 6136.12C31335.6 6135.71 31335.7 6135.22 31335.6 6134.65L31336.1 6134.91H31332.9V6134.21H31335.9C31336.1 6134.21 31336.3 6134.26 31336.4 6134.36C31336.5 6134.46 31336.6 6134.61 31336.6 6134.8V6138H31335.7V6137.2V6136.25H31335.7C31335.7 6136.47 31335.6 6136.72 31335.5 6137.01C31335.3 6137.3 31335 6137.55 31334.6 6137.78C31334.2 6138 31333.7 6138.11 31333.1 6138.11ZM31338 6130.95H31339.7L31343.3 6137.75H31343.3V6137.12V6130.95H31344.2V6138H31342.5L31338.9 6131.2H31338.9V6131.83V6138H31338V6130.95ZM31347.6 6130.95H31349.2L31351.6 6138H31350.7L31348.4 6131.2H31348.5L31346.1 6138H31345.2L31347.6 6130.95ZM31346.6 6134.52H31350.3V6135.3H31346.6V6134.52ZM31346.7 6129.48L31349.9 6128.68L31350.1 6129.36L31346.9 6130.16L31346.7 6129.48ZM31353.2 6138C31353 6138 31352.8 6137.95 31352.7 6137.84C31352.6 6137.73 31352.6 6137.57 31352.6 6137.37V6130.95H31353.5V6137.22H31357V6138H31353.2ZM31358.8 6138.1C31358.5 6138.1 31358.3 6138.02 31358.2 6137.86C31358 6137.69 31357.9 6137.49 31357.9 6137.25C31357.9 6137.02 31358 6136.82 31358.2 6136.66C31358.3 6136.49 31358.5 6136.41 31358.8 6136.41C31359 6136.41 31359.2 6136.49 31359.4 6136.66C31359.5 6136.82 31359.6 6137.02 31359.6 6137.25C31359.6 6137.48 31359.5 6137.68 31359.4 6137.85C31359.2 6138.02 31359 6138.1 31358.8 6138.1Z" fill="#BFBAB2" />
        <path d="M31361 6130.95H31362.8V6138H31361V6130.95ZM31363.7 6136.4C31364.2 6136.4 31364.6 6136.37 31364.9 6136.3C31365.2 6136.23 31365.4 6136.06 31365.6 6135.79C31365.7 6135.51 31365.8 6135.07 31365.8 6134.47C31365.8 6133.87 31365.7 6133.43 31365.6 6133.16C31365.4 6132.88 31365.2 6132.71 31364.9 6132.64C31364.6 6132.57 31364.2 6132.54 31363.7 6132.54H31362.8V6130.95H31363.7C31364.5 6130.95 31365.1 6131.04 31365.7 6131.22C31366.3 6131.4 31366.7 6131.75 31367.1 6132.27C31367.5 6132.79 31367.6 6133.52 31367.6 6134.47C31367.6 6135.42 31367.5 6136.16 31367.1 6136.68C31366.7 6137.2 31366.3 6137.55 31365.7 6137.73C31365.1 6137.91 31364.5 6138 31363.7 6138H31362.8V6136.4H31363.7ZM31368.5 6130.95H31374.1V6132.54H31370.3V6133.72H31373.6V6135.22H31370.3V6136.41H31374.1V6138H31368.5V6130.95ZM31381.1 6130.95V6132.54H31374.8V6130.95H31381.1ZM31378.9 6131.15V6138H31377.1V6131.15H31378.9ZM31382 6130.95H31387.6V6132.54H31383.8V6133.72H31387.1V6135.22H31383.8V6136.41H31387.6V6138H31382V6130.95ZM31388.6 6130.95H31390.4V6133.75H31390.4L31393.1 6130.95H31395.3L31391.5 6134.91L31391.4 6133.64L31395.4 6138H31393.1L31390.4 6134.97H31390.4V6138H31388.6V6130.95ZM31395 6134.47C31395 6133.78 31395.1 6133.15 31395.4 6132.6C31395.7 6132.04 31396.1 6131.6 31396.7 6131.29C31397.3 6130.97 31397.9 6130.81 31398.7 6130.81C31399.4 6130.81 31400.1 6130.97 31400.6 6131.29C31401.2 6131.6 31401.6 6132.04 31401.9 6132.6C31402.2 6133.15 31402.4 6133.78 31402.4 6134.47C31402.4 6135.17 31402.2 6135.8 31401.9 6136.36C31401.6 6136.91 31401.2 6137.35 31400.6 6137.67C31400.1 6137.98 31399.4 6138.14 31398.7 6138.14C31397.9 6138.14 31397.3 6137.98 31396.7 6137.67C31396.1 6137.35 31395.7 6136.91 31395.4 6136.36C31395.1 6135.8 31395 6135.17 31395 6134.47ZM31396.8 6134.47C31396.8 6134.9 31396.9 6135.27 31397 6135.57C31397.2 6135.87 31397.4 6136.1 31397.7 6136.26C31397.9 6136.41 31398.3 6136.49 31398.7 6136.49C31399.1 6136.49 31399.4 6136.41 31399.7 6136.26C31400 6136.1 31400.2 6135.87 31400.3 6135.57C31400.4 6135.27 31400.5 6134.9 31400.5 6134.47C31400.5 6134.04 31400.4 6133.67 31400.3 6133.38C31400.1 6133.08 31399.9 6132.85 31399.7 6132.7C31399.4 6132.54 31399.1 6132.46 31398.7 6132.46C31398.3 6132.46 31397.9 6132.54 31397.7 6132.7C31397.4 6132.85 31397.2 6133.08 31397 6133.38C31396.9 6133.68 31396.8 6134.04 31396.8 6134.47ZM31402 6130.95H31404L31406 6137.55H31405.9L31408 6130.95H31409.9L31407.6 6138H31404.3L31402 6130.95ZM31411.2 6130.95H31414.5L31416.7 6138H31414.8L31412.8 6131.4H31412.9L31410.8 6138H31408.9L31411.2 6130.95ZM31410.5 6134.28H31415.3V6135.87H31410.5V6134.28ZM31410.6 6129.28L31414.6 6128.41L31414.9 6129.62L31410.8 6130.49L31410.6 6129.28ZM31417.2 6130.95H31420.6L31422.7 6137.55H31422.6V6136.44V6130.95H31424.4V6138H31421L31419 6131.4H31419V6132.51V6138H31417.2V6130.95Z" fill="#7DDE07" />
      </g>
      <g id="Frame 2147207727_8">
        <path id="Gyroskop_8" d="M31097.6 6809.17C31096.7 6809.17 31096 6808.88 31095.5 6808.29C31095 6807.7 31094.7 6806.85 31094.7 6805.74V6803.86C31094.7 6802.78 31095 6801.94 31095.5 6801.34C31096 6800.74 31096.7 6800.43 31097.7 6800.43C31098.3 6800.43 31098.8 6800.57 31099.3 6800.84C31099.7 6801.11 31100.1 6801.48 31100.3 6801.94C31100.5 6802.4 31100.6 6802.91 31100.6 6803.48V6803.62H31099.6V6803.48C31099.6 6803.11 31099.5 6802.77 31099.4 6802.45C31099.3 6802.13 31099.1 6801.87 31098.8 6801.67C31098.5 6801.47 31098.1 6801.37 31097.7 6801.37C31097 6801.37 31096.5 6801.6 31096.2 6802.08C31095.9 6802.55 31095.7 6803.17 31095.7 6803.94V6805.66C31095.7 6806.48 31095.9 6807.11 31096.2 6807.56C31096.5 6808.01 31097 6808.23 31097.7 6808.23C31098.3 6808.23 31098.7 6808.04 31099.1 6807.66C31099.4 6807.26 31099.6 6806.73 31099.6 6806.05V6805.9H31096.9V6804.97H31100.6V6809H31099.7V6807.99H31099.5C31099.4 6808.34 31099.2 6808.62 31098.8 6808.84C31098.5 6809.06 31098.1 6809.17 31097.6 6809.17ZM31105.5 6809V6806.05H31105.3L31102.6 6800.6H31103.8L31105.9 6805.18H31106.1L31108.2 6800.6H31109.3L31106.7 6806.05H31106.5V6809H31105.5ZM31111.6 6809V6800.6H31114.6C31115.2 6800.6 31115.7 6800.71 31116.1 6800.92C31116.4 6801.13 31116.7 6801.41 31116.9 6801.75C31117.1 6802.1 31117.2 6802.47 31117.2 6802.88V6803.24C31117.2 6803.55 31117.1 6803.86 31116.9 6804.18C31116.8 6804.49 31116.5 6804.73 31116.1 6804.9V6805.04C31116.4 6805.07 31116.6 6805.17 31116.7 6805.33C31116.8 6805.48 31116.9 6805.7 31116.9 6805.98V6809H31115.9V6806.19C31115.9 6805.98 31115.9 6805.82 31115.8 6805.71C31115.7 6805.6 31115.5 6805.54 31115.3 6805.54H31112.6V6809H31111.6ZM31112.6 6804.61H31114.5C31115.6 6804.61 31116.2 6804.13 31116.2 6803.17V6802.95C31116.2 6802.53 31116.1 6802.19 31115.8 6801.93C31115.5 6801.67 31115.1 6801.54 31114.5 6801.54H31112.6V6804.61ZM31122.6 6809.17C31121.7 6809.17 31121 6808.88 31120.4 6808.29C31119.9 6807.7 31119.6 6806.85 31119.6 6805.74V6803.86C31119.6 6802.78 31119.9 6801.94 31120.4 6801.34C31121 6800.74 31121.7 6800.43 31122.6 6800.43C31123.5 6800.43 31124.2 6800.74 31124.8 6801.34C31125.3 6801.94 31125.5 6802.78 31125.5 6803.86V6805.74C31125.5 6806.85 31125.3 6807.7 31124.8 6808.29C31124.2 6808.88 31123.5 6809.17 31122.6 6809.17ZM31122.6 6808.23C31123.2 6808.23 31123.7 6808.01 31124 6807.56C31124.4 6807.11 31124.5 6806.48 31124.5 6805.66V6803.94C31124.5 6803.17 31124.4 6802.55 31124 6802.08C31123.7 6801.6 31123.2 6801.37 31122.6 6801.37C31121.9 6801.37 31121.5 6801.6 31121.1 6802.08C31120.8 6802.55 31120.7 6803.17 31120.7 6803.94V6805.66C31120.7 6806.48 31120.8 6807.11 31121.1 6807.56C31121.5 6808.01 31121.9 6808.23 31122.6 6808.23ZM31131.1 6809.17C31130.4 6809.17 31129.7 6809.04 31129.3 6808.77C31128.8 6808.5 31128.4 6808.13 31128.1 6807.67C31127.9 6807.2 31127.8 6806.68 31127.8 6806.1V6805.74H31128.8V6806.02C31128.8 6806.75 31129 6807.3 31129.4 6807.68C31129.8 6808.05 31130.4 6808.23 31131.1 6808.23C31131.7 6808.23 31132.2 6808.09 31132.5 6807.81C31132.8 6807.53 31133 6807.17 31133 6806.72V6806.65C31133 6806.21 31132.8 6805.87 31132.5 6805.64C31132.1 6805.41 31131.6 6805.24 31130.9 6805.14C31130.1 6805.02 31129.4 6804.78 31128.9 6804.43C31128.4 6804.07 31128.1 6803.53 31128.1 6802.81V6802.66C31128.1 6802.22 31128.2 6801.84 31128.5 6801.51C31128.7 6801.18 31129 6800.91 31129.5 6800.72C31129.9 6800.53 31130.4 6800.43 31130.9 6800.43C31131.5 6800.43 31132.1 6800.55 31132.5 6800.78C31133 6801.01 31133.3 6801.32 31133.5 6801.7C31133.8 6802.08 31133.9 6802.5 31133.9 6802.95V6803.46H31132.9V6803.02C31132.9 6802.66 31132.8 6802.35 31132.6 6802.11C31132.4 6801.86 31132.2 6801.68 31131.9 6801.56C31131.6 6801.43 31131.2 6801.37 31130.9 6801.37C31130.6 6801.37 31130.3 6801.42 31130 6801.52C31129.8 6801.63 31129.5 6801.78 31129.4 6801.98C31129.2 6802.17 31129.1 6802.41 31129.1 6802.7V6802.77C31129.1 6803.24 31129.3 6803.58 31129.7 6803.79C31130.1 6804 31130.6 6804.16 31131.4 6804.27C31132.3 6804.4 31132.9 6804.66 31133.3 6805.04C31133.8 6805.42 31134 6805.94 31134 6806.58V6806.72C31134 6807.45 31133.7 6808.04 31133.2 6808.5C31132.7 6808.94 31132 6809.17 31131.1 6809.17ZM31136.6 6809V6800.6H31137.6V6804.32H31137.9L31141.1 6800.6H31142.4V6800.67L31138.9 6804.73V6804.87L31142.5 6808.93V6809H31141.2L31137.9 6805.26H31137.6V6809H31136.6ZM31147.5 6809.17C31146.6 6809.17 31145.9 6808.88 31145.3 6808.29C31144.8 6807.7 31144.6 6806.85 31144.6 6805.74V6803.86C31144.6 6802.78 31144.8 6801.94 31145.3 6801.34C31145.9 6800.74 31146.6 6800.43 31147.5 6800.43C31148.4 6800.43 31149.2 6800.74 31149.7 6801.34C31150.2 6801.94 31150.5 6802.78 31150.5 6803.86V6805.74C31150.5 6806.85 31150.2 6807.7 31149.7 6808.29C31149.2 6808.88 31148.4 6809.17 31147.5 6809.17ZM31147.5 6808.23C31148.2 6808.23 31148.6 6808.01 31149 6807.56C31149.3 6807.11 31149.5 6806.48 31149.5 6805.66V6803.94C31149.5 6803.17 31149.3 6802.55 31149 6802.08C31148.6 6801.6 31148.2 6801.37 31147.5 6801.37C31146.9 6801.37 31146.4 6801.6 31146.1 6802.08C31145.7 6802.55 31145.6 6803.17 31145.6 6803.94V6805.66C31145.6 6806.48 31145.7 6807.11 31146.1 6807.56C31146.4 6808.01 31146.9 6808.23 31147.5 6808.23ZM31153.2 6809V6800.6H31156.2C31156.7 6800.6 31157.2 6800.71 31157.6 6800.92C31158 6801.13 31158.3 6801.41 31158.5 6801.75C31158.6 6802.1 31158.7 6802.47 31158.7 6802.88V6803.24C31158.7 6803.65 31158.6 6804.03 31158.5 6804.38C31158.3 6804.73 31158 6805.02 31157.6 6805.23C31157.2 6805.44 31156.7 6805.54 31156.2 6805.54H31154.2V6809H31153.2ZM31154.2 6804.61H31156.1C31157.2 6804.61 31157.7 6804.13 31157.7 6803.17V6802.95C31157.7 6802.53 31157.6 6802.19 31157.3 6801.93C31157 6801.67 31156.6 6801.54 31156.1 6801.54H31154.2V6804.61Z" fill="#BFBAB2" fill-opacity="0.48" />
        <g id="Frame 2147207726_8">
          <path id="Vector 71_8" d="M31098.1 6821H31421.1C31423.3 6821 31425.1 6822.79 31425.1 6825L31425 6981C31425 6983.21 31423.2 6985 31421 6985L31151.2 6985C31149.6 6985 31148.1 6984 31147.5 6982.47L31094.3 6847.89C31094.1 6847.41 31094 6846.91 31094 6846.4L31094.1 6824.98C31094.1 6822.78 31095.9 6821 31098.1 6821Z" stroke="white" stroke-opacity="0.12" />
        </g>
      </g>
      <g id="Frame 2147207707_8">
        <path id="Manuál_8" d="M31094.6 6254V6244.9H31096.7L31097.9 6253.53H31098.1L31099.3 6244.9H31101.4V6254H31100.3V6245.37H31100.2L31099 6254H31097L31095.8 6245.37H31095.6V6254H31094.6ZM31103.2 6254L31106 6244.9H31108L31110.8 6254H31109.6L31108.9 6251.74H31105L31104.4 6254H31103.2ZM31105.3 6250.72H31108.6L31107.1 6245.37H31106.9L31105.3 6250.72ZM31112.9 6254V6244.9H31115.1L31117.8 6253.53H31117.9V6244.9H31119V6254H31116.8L31114.2 6245.37H31114V6254H31112.9ZM31125 6254.18C31124 6254.18 31123.3 6253.9 31122.7 6253.35C31122.1 6252.79 31121.9 6251.98 31121.9 6250.93V6244.9H31122.9V6250.93C31122.9 6251.66 31123.1 6252.21 31123.5 6252.6C31123.8 6252.98 31124.3 6253.17 31125 6253.17C31125.6 6253.17 31126.1 6252.98 31126.5 6252.6C31126.8 6252.21 31127 6251.66 31127 6250.93V6244.9H31128.1V6250.93C31128.1 6251.98 31127.8 6252.79 31127.3 6253.35C31126.7 6253.9 31125.9 6254.18 31125 6254.18ZM31130.2 6254L31133 6244.9H31135L31137.8 6254H31136.6L31135.9 6251.74H31132L31131.4 6254H31130.2ZM31132.3 6250.72H31135.6L31134.1 6245.37H31133.9L31132.3 6250.72ZM31133.6 6243.94L31134.5 6242.4H31135.6L31134.5 6243.94H31133.6ZM31140.1 6254V6244.9H31141.2V6252.99H31146V6254H31140.1Z" fill="#BFBAB2" fill-opacity="0.48" />
        <g id="Frame 2147207678_15">
          <rect x="31094" y="6265" width="331" height="120" rx="4" stroke="white" stroke-opacity="0.12" />
          <g id="Frame 2147207677_8">
            <path id="Míchej pořádně!!!" d="M31112.7 6318V6291.21H31119.2L31127.3 6316.75L31135.4 6291.21H31141.7V6318H31138.3V6292.62L31130 6318H31124.5L31116.2 6292.62V6318H31112.7ZM31146.8 6291.21H31162.3V6294.17H31156.3V6315.04H31162.3V6318H31146.8V6315.04H31152.8V6294.17H31146.8V6291.21ZM31148.2 6285.62L31160.1 6282.58L31160.7 6285.17L31148.8 6288.21L31148.2 6285.62ZM31177.7 6318.42C31169.7 6318.42 31165 6312.45 31165 6304.59C31165 6296.76 31169.7 6290.79 31177.7 6290.79C31184.6 6290.79 31189.1 6294.9 31189.9 6301.55H31186.5C31185.9 6296.64 31182.8 6293.79 31177.7 6293.79C31171.7 6293.79 31168.5 6298.24 31168.5 6304.59C31168.5 6310.97 31171.7 6315.42 31177.7 6315.42C31182.8 6315.42 31185.9 6312.53 31186.5 6307.63H31189.9C31189.1 6314.31 31184.6 6318.42 31177.7 6318.42ZM31194.9 6291.21H31198.4V6303.29H31213.6V6291.21H31217.1V6318H31213.6V6306.3H31198.4V6318H31194.9V6291.21ZM31222.5 6318V6291.21H31241.2V6294.17H31226V6303.14H31239.3V6306.03H31226V6315.04H31241.2V6318H31222.5ZM31253.9 6318H31244.5V6315.04H31253.1C31256.9 6315.04 31258.1 6312.64 31258.1 6308.61V6294.17H31248.3V6291.21H31258.9C31260.9 6291.21 31261.5 6291.86 31261.5 6293.68V6309.56C31261.5 6315.04 31258.9 6318 31253.9 6318ZM31112.7 6357V6330.21H31120.5C31127.7 6330.21 31131.7 6332.26 31131.7 6339.06C31131.7 6345.9 31127.7 6347.96 31120.5 6347.96H31116.2V6357H31112.7ZM31116.2 6344.99H31120.6C31125.1 6344.99 31128.3 6344.08 31128.3 6339.06C31128.3 6334.09 31125.1 6333.17 31120.6 6333.17H31116.2V6344.99ZM31136.1 6343.59C31136.1 6335.76 31140.9 6329.79 31148.8 6329.79C31156.7 6329.79 31161.4 6335.76 31161.4 6343.59C31161.4 6351.45 31156.7 6357.42 31148.8 6357.42C31140.9 6357.42 31136.1 6351.45 31136.1 6343.59ZM31139.6 6343.59C31139.6 6349.89 31142.6 6354.42 31148.8 6354.42C31154.9 6354.42 31158 6349.89 31158 6343.59C31158 6337.32 31154.9 6332.79 31148.8 6332.79C31142.6 6332.79 31139.6 6337.32 31139.6 6343.59ZM31166.4 6357V6330.21H31176.3C31182.5 6330.21 31186.7 6331.62 31186.7 6337.54C31186.7 6341.57 31184.9 6343.59 31182.1 6344.31H31184C31186.2 6344.31 31186.8 6345.56 31186.8 6347.12V6357H31183.3V6346.4H31169.8V6357H31166.4ZM31169.5 6322.72L31171.4 6320.86L31175.8 6324.43L31180.2 6320.86L31182.1 6322.72L31175.8 6327.78L31169.5 6322.72ZM31169.8 6343.43H31176.3C31180.6 6343.43 31183.3 6342.94 31183.3 6338.3C31183.3 6333.55 31180.6 6333.17 31176.3 6333.17H31169.8V6343.43ZM31190.4 6357L31199.6 6330.21H31205.8L31214.9 6357H31211.3L31207.8 6346.74H31197.5L31194 6357H31190.4ZM31196.3 6324.62L31208.2 6321.58L31208.8 6324.17L31196.9 6327.21L31196.3 6324.62ZM31198.5 6343.78H31206.8L31202.6 6331.5L31198.5 6343.78ZM31218.4 6357V6330.21H31227C31233.6 6330.21 31240.6 6332.07 31240.6 6343.59C31240.6 6355.14 31233.6 6357 31227 6357H31218.4ZM31221.8 6354.04H31227C31231.8 6354.04 31237.1 6353.28 31237.1 6343.59C31237.1 6333.93 31231.7 6333.17 31227 6333.17H31221.8V6354.04ZM31245.5 6357V6330.21H31251.9L31265.6 6355.78V6330.21H31269V6357H31262.6L31249 6331.43V6357H31245.5ZM31274.5 6357V6330.21H31293.1V6333.17H31277.9V6342.14H31291.2V6345.03H31277.9V6354.04H31293.1V6357H31274.5ZM31276.6 6322.72L31278.5 6320.86L31282.9 6324.43L31287.3 6320.86L31289.2 6322.72L31282.9 6327.78L31276.6 6322.72ZM31300.1 6357.38C31298.2 6357.38 31296.8 6355.94 31296.8 6354.15C31296.8 6352.36 31298.2 6350.96 31300.1 6350.96C31301.9 6350.96 31303.3 6352.36 31303.3 6354.15C31303.3 6355.94 31301.9 6357.38 31300.1 6357.38ZM31298.4 6330.21H31301.8L31301.4 6347.65H31298.9L31298.4 6330.21ZM31310.3 6357.38C31308.4 6357.38 31307 6355.94 31307 6354.15C31307 6352.36 31308.4 6350.96 31310.3 6350.96C31312.1 6350.96 31313.5 6352.36 31313.5 6354.15C31313.5 6355.94 31312.1 6357.38 31310.3 6357.38ZM31308.6 6330.21H31312L31311.6 6347.65H31309.1L31308.6 6330.21ZM31320.5 6357.38C31318.6 6357.38 31317.3 6355.94 31317.3 6354.15C31317.3 6352.36 31318.6 6350.96 31320.5 6350.96C31322.3 6350.96 31323.8 6352.36 31323.8 6354.15C31323.8 6355.94 31322.3 6357.38 31320.5 6357.38ZM31318.9 6330.21H31322.2L31321.8 6347.65H31319.3L31318.9 6330.21Z" fill="#BFBAB2" />
          </g>
        </g>
      </g>
      <g id="Frame 2147207728_15">
        <path id="Míchání_8" d="M31094.6 6423V6413.9H31096.7L31097.9 6422.53H31098.1L31099.3 6413.9H31101.4V6423H31100.3V6414.37H31100.2L31099 6423H31097L31095.8 6414.37H31095.6V6423H31094.6ZM31104.1 6423V6421.99H31106.4V6414.91H31104.1V6413.9H31109.9V6414.91H31107.5V6421.99H31109.9V6423H31104.1ZM31106.6 6412.94L31107.5 6411.4H31108.7L31107.6 6412.94H31106.6ZM31116 6423.18C31115 6423.18 31114.2 6422.87 31113.7 6422.23C31113.1 6421.59 31112.8 6420.67 31112.8 6419.46V6417.44C31112.8 6416.27 31113.1 6415.36 31113.7 6414.71C31114.2 6414.05 31115 6413.72 31116 6413.72C31116.7 6413.72 31117.3 6413.87 31117.8 6414.16C31118.3 6414.45 31118.6 6414.85 31118.9 6415.36C31119.1 6415.85 31119.2 6416.4 31119.2 6417.02V6417.18H31118.1V6417.02C31118.1 6416.62 31118 6416.25 31117.9 6415.9C31117.8 6415.56 31117.5 6415.27 31117.2 6415.06C31116.9 6414.84 31116.5 6414.73 31116 6414.73C31115.3 6414.73 31114.8 6414.99 31114.4 6415.5C31114.1 6416.01 31113.9 6416.68 31113.9 6417.51V6419.39C31113.9 6420.27 31114.1 6420.95 31114.4 6421.44C31114.8 6421.93 31115.3 6422.17 31116 6422.17C31116.5 6422.17 31116.9 6422.06 31117.2 6421.84C31117.6 6421.63 31117.8 6421.34 31117.9 6421C31118.1 6420.65 31118.1 6420.28 31118.1 6419.88V6419.72H31119.2V6419.88C31119.2 6420.5 31119.1 6421.05 31118.9 6421.56C31118.6 6422.05 31118.3 6422.45 31117.8 6422.74C31117.3 6423.03 31116.7 6423.18 31116 6423.18ZM31121.9 6423V6413.9H31123V6417.93H31126.9V6413.9H31128V6423H31126.9V6418.94H31123V6423H31121.9ZM31130.2 6423L31133 6413.9H31135L31137.8 6423H31136.6L31135.9 6420.74H31132L31131.4 6423H31130.2ZM31132.3 6419.72H31135.6L31134.1 6414.37H31133.9L31132.3 6419.72ZM31133.6 6412.94L31134.5 6411.4H31135.6L31134.5 6412.94H31133.6ZM31139.9 6423V6413.9H31142.1L31144.8 6422.53H31144.9V6413.9H31146V6423H31143.8L31141.2 6414.37H31141V6423H31139.9ZM31149.1 6423V6421.99H31151.4V6414.91H31149.1V6413.9H31154.9V6414.91H31152.5V6421.99H31154.9V6423H31149.1ZM31151.6 6412.94L31152.5 6411.4H31153.7L31152.6 6412.94H31151.6Z" fill="#BFBAB2" fill-opacity="0.48" />
        <g id="Frame 2147207678_16">
          <rect x="31094" y="6434" width="331" height="166" rx="4" stroke="white" stroke-opacity="0.12" />
          <g id="Frame 2147207728_16">
            <g id="Frame 2147207730_8">
              <g clip-path="url(#clip22_0_1)">
                <rect x="31110" y="6542" width="299" height="40" rx="2" fill="#041D3D" />
              </g>
            </g>
          </g>
        </g>
      </g>
    </g>
  </g>
  <defs>
    <clipPath id="clip21_0_1">
      <rect x="30708" y="5994" width="744" height="1073" rx="20" fill="white" />
    </clipPath>
    <clipPath id="clip22_0_1">
      <rect x="31110" y="6542" width="299" height="40" rx="2" fill="white" />
    </clipPath>
  </defs>
</svg>